PathFileType	4	(X/Y/Z)	14_coords_data.trc
DataRate	CameraRate	NumFrames	NumMarkers	Units	OrigDataRate	OrigDataStartFrame	OrigNumFrames
30.0	30.0	7	21	m	30.0	1	53
Frame#	Time	THUMB_TIP	THUMB_IP	THUMB_MCP	THUMB_CMC	INDEX_TIP	INDEX_DIP	INDEX_PIP	INDEX_MCP	MIDDLE_TIP	MIDDLE_DIP	MIDDLE_PIP	MIDDLE_MCP	RING_TIP	RING_DIP	RING_PIP	RING_MCP	PINKY_TIP	PINKY_DIP	PINKY_PIP	PINKY_MCP	WRIST
X1	Y1	Z1	X2	Y2	Z2	X3	Y3	Z3	X4	Y4	Z4	X5	Y5	Z5	X6	Y6	Z6	X7	Y7	Z7	X8	Y8	Z8	X9	Y9	Z9	X10	Y10	Z10	X11	Y11	Z11	X12	Y12	Z12	X13	Y13	Z13	X14	Y14	Z14	X15	Y15	Z15	X16	Y16	Z16	X17	Y17	Z17	X18	Y18	Z18	X19	Y19	Z19	X20	Y20	Z20	X21	Y21	Z21
0	0.0	0.02995630073547363	0.002646430015563965	0.9310969848632813	0.01996030044555664	-0.007671279907226563	0.9519619750976562	0.0034818298816680906	-0.006298649787902832	0.9756939697265625	-0.00723015022277832	0.017651399612426757	0.9897169799804687	-0.007396910190582275	-0.008822010040283204	0.9584169921875	0.005505099773406983	-0.010922800064086914	0.9431480102539063	1.7193900421261e-05	-0.014441900253295899	0.9222119750976563	-0.033072601318359374	-0.009942219734191895	0.9395150146484375	0.003042350053787231	0.00732834005355835	0.9585369873046875	0.009782939910888673	0.00953715991973877	0.949947021484375	0.006599609851837158	0.010242199897766114	0.9226580200195312	-0.033696800231933596	0.012094900131225586	0.9311430053710937	-0.0018122700452804562	0.023196300506591796	0.967322998046875	0.005916120052337647	0.02678770065307617	0.9612020263671875	0.009382679939270019	0.031382699966430665	0.9371790161132812	-0.029131000518798827	0.03365449905395508	0.9342030029296875	-0.008062459945678712	0.041034099578857425	0.9758790283203125	0.004083280086517334	0.04191370010375976	0.9691799926757813	0.006980519771575927	0.04704159927368164	0.9513040161132813	-0.021103599548339843	0.051994598388671875	0.9433599853515625	-0.03626630020141602	0.036135501861572265	1.0044400024414062
1	0.03333333333333333	0.029593799591064455	0.002173929929733276	0.930718994140625	0.01920599937438965	-0.007928450107574463	0.9513280029296876	0.002619290113449096	-0.0065894098281860354	0.9752659912109375	-0.007783309936523437	0.017459800720214844	0.9896019897460937	-0.008122050285339355	-0.008718079566955566	0.9579669799804688	0.004818349838256836	-0.010820799827575684	0.9427030029296875	-0.000846879005432128	-0.014051699638366699	0.921760009765625	-0.0339198989868164	-0.009356550216674805	0.9393359985351563	0.002569489955902099	0.007221819877624512	0.95814501953125	0.00908788013458252	0.009546819686889649	0.9498709716796875	0.0060251598358154294	0.010511599540710449	0.922447998046875	-0.03428160095214844	0.012791899681091309	0.931135009765625	-0.001720029950141906	0.023044200897216798	0.96660400390625	0.005604290008544922	0.02674340057373047	0.96110400390625	0.009109089851379395	0.03147830009460449	0.9372329711914062	-0.029449600219726563	0.03419990158081055	0.9342100219726562	-0.008155460357666016	0.04081679916381836	0.9764290161132813	0.003913300037384033	0.04181169891357422	0.9692329711914063	0.006823500156402588	0.047001201629638674	0.9514860229492188	-0.021135400772094727	0.05235660171508789	0.9435269775390625	-0.03649050140380859	0.0363306999206543	1.0043400268554687
2	0.06666666666666667	0.029097200393676758	0.0017224899530410762	0.9307630004882812	0.018523399353027343	-0.008339790344238282	0.95122998046875	0.001828189969062805	-0.006790659904479981	0.9753060302734375	-0.008181570053100586	0.017020900726318358	0.98960498046875	-0.008700889587402344	-0.008969300270080567	0.9572269897460938	0.004071599960327148	-0.010835300445556641	0.942780029296875	-0.001520820021629333	-0.013952799797058105	0.9216719970703126	-0.03455569839477539	-0.009237580299377442	0.9392050170898437	0.0018838499784469601	0.007147940158843994	0.95827099609375	0.008726200103759766	0.009417180061340333	0.9496160278320313	0.005541309833526611	0.010496800422668456	0.92252099609375	-0.03490829849243164	0.012960100173950195	0.931281005859375	-0.0020191700458526613	0.022947599411010742	0.9663699951171875	0.005081140041351319	0.02660219955444336	0.961177978515625	0.008658029556274415	0.031376399993896485	0.9372410278320312	-0.029897499084472656	0.0343296012878418	0.934218017578125	-0.008412790298461915	0.040960700988769534	0.9762000122070312	0.003463979959487915	0.04167739868164062	0.969416015625	0.006462080001831055	0.04686999893188477	0.9515269775390625	-0.021459199905395507	0.052418201446533204	0.943635009765625	-0.036985000610351565	0.03628160095214844	1.0044000244140625
3	0.1	0.028834199905395506	0.001350640058517456	0.9310440063476563	0.018261499404907226	-0.008606300354003907	0.9516079711914063	0.001687420010566711	-0.0069888501167297366	0.9753820190429687	-0.008516380310058594	0.016954599380493166	0.9897899780273437	-0.00908708953857422	-0.009097749710083008	0.958010986328125	0.004146249771118164	-0.011080300331115723	0.9428599853515625	-0.0018525700569152832	-0.014345600128173827	0.9218629760742187	-0.034900699615478516	-0.009517959594726563	0.9394450073242188	0.001543140053749084	0.006875810146331787	0.9583870239257812	0.008378239631652832	0.009179519653320313	0.9499320068359375	0.005286210060119629	0.010182000160217286	0.9227990112304687	-0.03513330078125	0.012668499946594238	0.9314110107421875	-0.0023649899959564207	0.02273010063171387	0.966531982421875	0.004844970226287841	0.026371999740600584	0.961281982421875	0.008261799812316895	0.0311697998046875	0.937364990234375	-0.030229299545288087	0.034045200347900394	0.934458984375	-0.008794449806213378	0.040110801696777346	0.976905029296875	0.003260790109634399	0.04148839950561523	0.9694760131835938	0.006156610012054443	0.046728900909423825	0.9516300048828125	-0.02188010025024414	0.052161800384521485	0.9438889770507812	-0.037255699157714844	0.03609820175170898	1.0046599731445311
4	0.13333333333333333	0.02886020088195801	0.0008668730258941651	0.9314769897460937	0.01815130043029785	-0.008947879791259765	0.9519359741210938	0.001435500025749206	-0.007251029968261719	0.9760029907226563	-0.008798640251159668	0.016713100433349608	0.9902169799804688	-0.009284210205078126	-0.009620800018310546	0.9581820068359375	0.003943540096282959	-0.011386500358581544	0.9432940063476563	-0.0019688800573349	-0.014591899871826172	0.9222769775390625	-0.034961898803710936	-0.00967195987701416	0.9397760009765626	0.001593050003051757	0.006556580066680908	0.9588599853515625	0.008356049537658691	0.008865349769592286	0.9502570190429688	0.005203159809112548	0.00993012046813965	0.9230139770507813	-0.03519110107421875	0.012504899978637695	0.9317919921875	-0.002419500112533569	0.022475999832153322	0.9672940063476563	0.0047207999229431155	0.026101200103759766	0.9617340087890625	0.008298680305480957	0.03091580009460449	0.9378300170898437	-0.030216899871826172	0.03386420059204102	0.934864990234375	-0.00862617015838623	0.04002030181884766	0.9772000122070312	0.003227289915084839	0.04128620147705078	0.96989697265625	0.006147689819335936	0.04645610046386719	0.9520260009765625	-0.021836700439453124	0.051991001129150394	0.9442269897460938	-0.03731900024414062	0.035924999237060544	1.005010009765625
5	0.16666666666666666	0.028903499603271484	0.000722069025039672	0.9318300170898437	0.01810110092163086	-0.009063779830932617	0.9522930297851563	0.001356899976730346	-0.007478990077972412	0.9762780151367187	-0.008816530227661133	0.01652079963684082	0.9904099731445313	-0.009122460365295411	-0.009432490348815919	0.9582349853515625	0.003700469970703125	-0.011505900382995605	0.943302001953125	-0.0020385301113128662	-0.01459179973602295	0.9224019775390625	-0.035084300994873044	-0.009659560203552246	0.9399979858398437	0.0014867700338363642	0.0064964799880981436	0.9591069946289063	0.008294099807739258	0.008798170089721679	0.9505260009765625	0.005237090110778809	0.009926859855651855	0.9232860107421875	-0.03518510055541992	0.012508299827575684	0.9319760131835938	-0.002592700004577636	0.02241600036621094	0.9677000122070313	0.00470488977432251	0.026056999206542968	0.961947998046875	0.008281279563903808	0.03091130065917969	0.9380339965820312	-0.0302814998626709	0.03388370132446289	0.9352009887695313	-0.008481200218200684	0.04012469863891602	0.9772990112304687	0.0032162399291992176	0.0412223014831543	0.9700659790039062	0.0061432900428771975	0.0464286994934082	0.9521849975585938	-0.021645700454711914	0.05194509887695312	0.9441400146484376	-0.037308998107910156	0.03589070129394531	1.0050900268554688
6	0.2	0.02912719917297363	0.00081105101108551	0.9315460205078125	0.018343700408935546	-0.008651269912719726	0.9518699951171875	0.001369899988174438	-0.007204659938812256	0.9763660278320313	-0.008572190284729005	0.016811700820922853	0.9902349853515625	-0.009022680282592774	-0.009275850296020507	0.95860498046875	0.004008900165557861	-0.011131600379943847	0.9432620239257813	-0.0019832600355148312	-0.014151700019836426	0.9222789916992188	-0.03502069854736328	-0.009411540031433106	0.9398590087890625	0.001481469988822937	0.006836900234222412	0.9587830200195312	0.008424909591674804	0.009151479721069337	0.9503670043945313	0.00520697021484375	0.010228699684143066	0.9230969848632813	-0.03518349838256836	0.012756400108337403	0.9319320068359375	-0.003800050020217895	0.022926599502563476	0.9689840087890625	0.0047376899719238285	0.02640999984741211	0.9617340087890625	0.008269960403442383	0.03126759910583496	0.9378400268554687	-0.030342100143432617	0.034090801239013674	0.9351190185546875	-0.008903929710388184	0.04042169952392578	0.9770679931640625	0.003177989959716797	0.04156829833984375	0.96997998046875	0.005987229824066162	0.04689599990844726	0.9520960083007812	-0.02195159912109375	0.05224520111083984	0.9443380126953125	-0.03730960083007812	0.03604069900512695	1.0051199951171874
